<svg width="498" height="641" viewBox="0 0 498 641" fill="none" xmlns="http://www.w3.org/2000/svg">
<g opacity="0.5">
<path opacity="0.5" d="M232.848 196.664C276.347 171.285 312.308 195.004 318.67 249.773C319.777 259.247 312.584 271.763 303.802 276.88L161.894 359.725C153.111 364.842 145.919 360.693 147.025 349.905C153.388 287.876 189.418 222.043 232.848 196.664Z" fill="url(#paint0_linear_12617_2158)"/>
<path opacity="0.5" d="M184.369 125.576C184.369 163.402 206.223 181.243 233.193 165.476C260.164 149.71 282.018 106.351 282.018 68.5251C282.018 30.6989 260.164 12.8577 233.193 28.6244C206.223 44.391 184.369 87.7494 184.369 125.576Z" fill="url(#paint1_linear_12617_2158)"/>
<path opacity="0.07" d="M204.909 173.982C248.408 148.603 284.369 172.322 290.731 227.091C291.838 236.565 284.646 249.081 275.863 254.198L133.955 337.043C125.172 342.16 117.98 338.011 119.086 327.223C125.449 265.194 161.41 199.361 204.909 173.982Z" fill="url(#paint2_linear_12617_2158)"/>
<path opacity="0.07" d="M156.43 102.894C156.43 140.72 178.284 158.561 205.255 142.794C232.225 127.028 254.079 83.6694 254.079 45.8433C254.079 8.01708 232.225 -9.82415 205.255 5.94252C178.284 21.7092 156.43 65.0675 156.43 102.894Z" fill="url(#paint3_linear_12617_2158)"/>
<path opacity="0.2" d="M62.4477 390.182C62.4477 388.58 63.3024 387.099 64.6898 386.298L178.612 320.526C181.601 318.8 185.338 320.958 185.338 324.41V380.678L62.4477 451.628V390.182Z" fill="url(#paint4_linear_12617_2158)"/>
<path d="M160.373 352.533C160.373 357.788 163.485 360.278 167.357 358.065C171.23 355.852 174.342 349.767 174.342 344.511C174.342 339.255 171.23 336.766 167.357 338.979C163.485 341.192 160.373 347.277 160.373 352.533Z" fill="#E559F9"/>
<path opacity="0.15" d="M153.872 350.251L116.943 371.619V379.295L153.941 357.927L153.872 350.251Z" fill="#FEFEFE"/>
<path opacity="0.15" d="M153.872 365.672L75.1724 411.104V418.919L153.872 373.486V365.672Z" fill="#FEFEFE"/>
<path opacity="0.2" d="M312.1 316.19C312.1 314.587 312.956 313.107 314.344 312.306L428.266 246.598C431.255 244.873 434.99 247.031 434.99 250.482V306.754L312.1 377.704V316.19Z" fill="url(#paint5_linear_12617_2158)"/>
<path d="M410.025 278.54C410.025 283.796 413.137 286.285 417.01 284.072C420.883 281.859 423.995 275.774 423.995 270.518C423.995 265.263 420.883 262.773 417.01 264.986C413.137 267.199 410.025 273.284 410.025 278.54Z" fill="#835AFD"/>
<path opacity="0.15" d="M403.732 276.604L381.464 289.466V297.28L403.732 284.418V276.604Z" fill="#FEFEFE"/>
<path opacity="0.15" d="M403.524 292.025L324.825 337.457V345.272L403.524 299.839V292.025Z" fill="#FEFEFE"/>
<path opacity="0.3" d="M232.913 392.183C232.915 388.73 229.177 386.571 226.187 388.297L2.3096 517.55C0.922989 518.35 0.0684357 519.83 0.0675201 521.431L-0.000152588 640.205L212.308 517.668L230.89 523.736C231.856 524.052 232.848 523.332 232.849 522.316L232.913 392.183Z" fill="url(#paint6_linear_12617_2158)"/>
<path d="M185.614 452.388C185.614 462.415 191.493 467.049 198.823 462.83C206.154 458.612 212.032 447.064 212.032 437.106C212.032 427.079 206.154 422.446 198.823 426.664C191.562 430.882 185.614 442.43 185.614 452.388Z" fill="#E559F9"/>
<path opacity="0.15" d="M173.028 448.516L121.991 477.975V488.624L173.028 459.165V448.516Z" fill="#FEFEFE"/>
<path opacity="0.15" d="M173.028 469.884L20.6086 557.845V568.494L173.028 480.533V469.884Z" fill="#FEFEFE"/>
<path opacity="0.15" d="M173.028 491.252L53.8726 560.058V570.708L173.028 501.901V491.252Z" fill="#FEFEFE"/>
<path opacity="0.3" d="M264.382 421.852C264.382 420.251 265.237 418.771 266.625 417.971L490.501 288.785C493.491 287.06 497.228 289.219 497.226 292.672L497.162 406.264L284.853 528.801L267.05 555.175C266.225 556.397 264.315 555.813 264.316 554.338L264.382 421.852Z" fill="url(#paint7_linear_12617_2158)"/>
<path d="M311.686 432.611C311.686 442.638 305.738 454.117 298.477 458.335C291.146 462.554 285.268 457.851 285.268 447.824C285.268 437.797 291.215 426.318 298.477 422.1C305.738 417.95 311.686 422.653 311.686 432.611Z" fill="#835AFD"/>
<path opacity="0.15" d="M324.272 414.285L375.309 384.827V395.476L324.272 424.935V414.285Z" fill="#FEFEFE"/>
<path opacity="0.15" d="M324.203 435.584L476.622 347.623V358.272L324.272 446.234L324.203 435.584Z" fill="#FEFEFE"/>
<path opacity="0.15" d="M324.203 456.952L443.358 388.146V398.795L324.203 467.602V456.952Z" fill="#FEFEFE"/>
<path opacity="0.2" d="M400.274 494.848C396.125 497.199 392.805 503.007 392.805 507.848V528.939L378.836 536.961C374.687 539.312 371.367 545.121 371.367 549.893C371.367 554.664 374.687 556.6 378.836 554.249L392.805 546.158V567.25C392.805 572.021 396.125 573.957 400.274 571.606C404.424 569.255 407.743 563.446 407.743 558.675V537.583L421.713 529.562C425.862 527.211 429.181 521.402 429.181 516.63C429.181 511.859 425.862 509.923 421.713 512.274L407.743 520.295V499.204C407.812 494.363 404.424 492.427 400.274 494.848Z" fill="url(#paint8_linear_12617_2158)"/>
<path opacity="0.2" d="M99.7919 224.671L80.5666 262.428C77.9386 267.614 78.3536 272.8 81.5348 274.045C84.7159 275.29 89.4185 272.04 92.0464 266.853L92.2539 266.369V308.275C92.2539 313.047 95.5734 314.983 99.7228 312.632C103.872 310.212 107.192 304.472 107.192 299.701V257.794L107.399 258.002C110.027 260.146 114.799 257.933 117.911 253.023C121.092 248.113 121.507 242.443 118.879 240.299L99.7919 224.671Z" fill="url(#paint9_linear_12617_2158)"/>
</g>
<defs>
<linearGradient id="paint0_linear_12617_2158" x1="53.4048" y1="155.278" x2="230.053" y2="284.144" gradientUnits="userSpaceOnUse">
<stop stop-color="white"/>
<stop offset="1" stop-color="white" stop-opacity="0"/>
</linearGradient>
<linearGradient id="paint1_linear_12617_2158" x1="143.431" y1="31.588" x2="320.079" y2="160.455" gradientUnits="userSpaceOnUse">
<stop stop-color="white"/>
<stop offset="1" stop-color="white" stop-opacity="0"/>
</linearGradient>
<linearGradient id="paint2_linear_12617_2158" x1="25.4541" y1="132.588" x2="202.103" y2="261.454" gradientUnits="userSpaceOnUse">
<stop stop-color="white"/>
<stop offset="1" stop-color="white" stop-opacity="0"/>
</linearGradient>
<linearGradient id="paint3_linear_12617_2158" x1="115.48" y1="8.89767" x2="292.128" y2="137.764" gradientUnits="userSpaceOnUse">
<stop stop-color="white"/>
<stop offset="1" stop-color="white" stop-opacity="0"/>
</linearGradient>
<linearGradient id="paint4_linear_12617_2158" x1="110.043" y1="360.13" x2="137.761" y2="408.155" gradientUnits="userSpaceOnUse">
<stop stop-color="white"/>
<stop offset="1" stop-color="white" stop-opacity="0"/>
</linearGradient>
<linearGradient id="paint5_linear_12617_2158" x1="359.695" y1="286.146" x2="387.413" y2="334.171" gradientUnits="userSpaceOnUse">
<stop stop-color="white"/>
<stop offset="1" stop-color="white" stop-opacity="0"/>
</linearGradient>
<linearGradient id="paint6_linear_12617_2158" x1="132.903" y1="388.362" x2="102.8" y2="632.537" gradientUnits="userSpaceOnUse">
<stop stop-color="white"/>
<stop offset="1" stop-color="white" stop-opacity="0"/>
</linearGradient>
<linearGradient id="paint7_linear_12617_2158" x1="315.157" y1="370.665" x2="435.395" y2="464.814" gradientUnits="userSpaceOnUse">
<stop stop-color="white"/>
<stop offset="1" stop-color="white" stop-opacity="0"/>
</linearGradient>
<linearGradient id="paint8_linear_12617_2158" x1="385.852" y1="521.786" x2="422.059" y2="550.362" gradientUnits="userSpaceOnUse">
<stop stop-color="white"/>
<stop offset="1" stop-color="white" stop-opacity="0"/>
</linearGradient>
<linearGradient id="paint9_linear_12617_2158" x1="86.1259" y1="262.759" x2="121.202" y2="282.313" gradientUnits="userSpaceOnUse">
<stop stop-color="white"/>
<stop offset="1" stop-color="white" stop-opacity="0"/>
</linearGradient>
</defs>
</svg>
