<svg width="440" height="567" viewBox="0 0 440 567" fill="none" xmlns="http://www.w3.org/2000/svg">
<path opacity="0.5" d="M206.047 174.028C244.54 151.57 276.361 172.56 281.991 221.024C282.971 229.408 276.606 240.483 268.834 245.012L143.26 318.321C135.488 322.849 129.124 319.177 130.103 309.631C135.733 254.741 167.616 196.486 206.047 174.028Z" fill="url(#paint0_linear_12617_2158)"/>
<path opacity="0.5" d="M163.149 111.122C163.149 144.594 182.487 160.382 206.353 146.43C230.22 132.478 249.558 94.1104 249.558 60.6379C249.558 27.1655 230.22 11.3778 206.353 25.3297C182.487 39.2817 163.149 77.6495 163.149 111.122Z" fill="url(#paint1_linear_12617_2158)"/>
<path opacity="0.07" d="M181.324 153.957C219.816 131.499 251.638 152.488 257.268 200.953C258.248 209.336 251.883 220.412 244.111 224.94L118.537 298.249C110.765 302.778 104.401 299.106 105.38 289.56C111.01 234.67 142.832 176.415 181.324 153.957Z" fill="url(#paint2_linear_12617_2158)"/>
<path opacity="0.07" d="M138.425 91.0507C138.425 124.523 157.763 140.311 181.63 126.359C205.496 112.407 224.834 74.0392 224.834 40.5667C224.834 7.09432 205.496 -8.6934 181.63 5.25854C157.763 19.2105 138.425 57.5783 138.425 91.0507Z" fill="url(#paint3_linear_12617_2158)"/>
<path opacity="0.2" d="M55.2601 345.57C55.2601 343.968 56.1148 342.488 57.5022 341.687L157.279 284.081C160.269 282.355 164.006 284.512 164.006 287.964V336.862L55.2601 399.646V345.57Z" fill="url(#paint4_linear_12617_2158)"/>
<path d="M141.914 311.956C141.914 316.607 144.668 318.81 148.095 316.852C151.522 314.894 154.275 309.509 154.275 304.858C154.275 300.207 151.522 298.005 148.095 299.963C144.668 301.921 141.914 307.306 141.914 311.956Z" fill="#E559F9"/>
<path opacity="0.15" d="M136.161 309.937L103.483 328.846V335.638L136.223 316.73L136.161 309.937Z" fill="#FEFEFE"/>
<path opacity="0.15" d="M136.161 323.583L66.5202 363.787V370.701L136.161 330.498V323.583Z" fill="#FEFEFE"/>
<path opacity="0.2" d="M276.178 280.095C276.178 278.492 277.033 277.012 278.422 276.211L378.199 218.661C381.188 216.937 384.923 219.094 384.923 222.545V271.447L276.178 334.231V280.095Z" fill="url(#paint5_linear_12617_2158)"/>
<path d="M362.832 246.48C362.832 251.131 365.585 253.334 369.012 251.376C372.439 249.418 375.193 244.033 375.193 239.382C375.193 234.731 372.439 232.528 369.012 234.487C365.585 236.445 362.832 241.83 362.832 246.48Z" fill="#835AFD"/>
<path opacity="0.15" d="M357.263 244.767L337.558 256.149V263.063L357.263 251.682V244.767Z" fill="#FEFEFE"/>
<path opacity="0.15" d="M357.079 258.413L287.438 298.616V305.531L357.079 265.328V258.413Z" fill="#FEFEFE"/>
<path opacity="0.3" d="M206.104 347.937C206.106 344.485 202.369 342.325 199.378 344.052L2.3017 457.831C0.915085 458.632 0.0605164 460.111 0.0596008 461.712L-0.000106812 566.518L187.872 458.085L204.089 463.381C205.055 463.697 206.048 462.977 206.048 461.961L206.104 347.937Z" fill="url(#paint6_linear_12617_2158)"/>
<path d="M164.25 400.319C164.25 409.192 169.452 413.292 175.939 409.559C182.426 405.826 187.627 395.607 187.627 386.795C187.627 377.922 182.426 373.822 175.939 377.555C169.513 381.288 164.25 391.507 164.25 400.319Z" fill="#E559F9"/>
<path opacity="0.15" d="M153.113 396.892L107.95 422.96V432.384L153.113 406.316V396.892Z" fill="#FEFEFE"/>
<path opacity="0.15" d="M153.113 415.8L18.2366 493.638V503.061L153.113 425.224V415.8Z" fill="#FEFEFE"/>
<path opacity="0.15" d="M153.113 434.709L47.6719 495.596V505.02L153.113 444.133V434.709Z" fill="#FEFEFE"/>
<path opacity="0.3" d="M233.951 373.595C233.952 371.994 234.807 370.514 236.194 369.714L433.27 255.993C436.261 254.268 439.997 256.427 439.995 259.88L439.939 359.503L252.067 467.937L236.627 490.808C235.802 492.031 233.893 491.446 233.894 489.971L233.951 373.595Z" fill="url(#paint7_linear_12617_2158)"/>
<path d="M275.811 382.818C275.811 391.691 270.548 401.849 264.122 405.581C257.636 409.314 252.434 405.153 252.434 396.28C252.434 387.407 257.697 377.249 264.122 373.516C270.548 369.845 275.811 374.006 275.811 382.818Z" fill="#835AFD"/>
<path opacity="0.15" d="M286.949 366.602L332.111 340.533V349.957L286.949 376.025V366.602Z" fill="#FEFEFE"/>
<path opacity="0.15" d="M286.887 385.449L421.764 307.612V317.036L286.949 394.873L286.887 385.449Z" fill="#FEFEFE"/>
<path opacity="0.15" d="M286.887 404.357L392.328 343.471V352.894L286.887 413.781V404.357Z" fill="#FEFEFE"/>
<path opacity="0.2" d="M354.203 437.891C350.531 439.972 347.594 445.112 347.594 449.395V468.059L335.232 475.157C331.56 477.238 328.623 482.378 328.623 486.6C328.623 490.823 331.56 492.536 335.232 490.456L347.594 483.296V501.96C347.594 506.182 350.531 507.895 354.203 505.815C357.875 503.734 360.812 498.594 360.812 494.372V475.708L373.174 468.61C376.846 466.529 379.783 461.389 379.783 457.167C379.783 452.944 376.846 451.231 373.174 453.312L360.812 460.41V441.746C360.873 437.463 357.875 435.749 354.203 437.891Z" fill="url(#paint8_linear_12617_2158)"/>
<path opacity="0.2" d="M88.3059 198.811L71.2934 232.222C68.968 236.812 69.3352 241.401 72.1502 242.503C74.9652 243.604 79.1265 240.728 81.452 236.139L81.6356 235.71V272.793C81.6356 277.015 84.573 278.729 88.2448 276.648C91.9165 274.507 94.8539 269.428 94.8539 265.205V228.123L95.0375 228.306C97.363 230.203 101.586 228.245 104.339 223.9C107.154 219.556 107.522 214.538 105.196 212.641L88.3059 198.811Z" fill="url(#paint9_linear_12617_2158)"/>
<defs>
<linearGradient id="paint0_linear_12617_2158" x1="47.258" y1="137.405" x2="203.574" y2="251.44" gradientUnits="userSpaceOnUse">
<stop stop-color="white"/>
<stop offset="1" stop-color="white" stop-opacity="0"/>
</linearGradient>
<linearGradient id="paint1_linear_12617_2158" x1="126.922" y1="27.9523" x2="283.238" y2="141.986" gradientUnits="userSpaceOnUse">
<stop stop-color="white"/>
<stop offset="1" stop-color="white" stop-opacity="0"/>
</linearGradient>
<linearGradient id="paint2_linear_12617_2158" x1="22.5243" y1="117.327" x2="178.841" y2="231.361" gradientUnits="userSpaceOnUse">
<stop stop-color="white"/>
<stop offset="1" stop-color="white" stop-opacity="0"/>
</linearGradient>
<linearGradient id="paint3_linear_12617_2158" x1="102.189" y1="7.87355" x2="258.504" y2="121.907" gradientUnits="userSpaceOnUse">
<stop stop-color="white"/>
<stop offset="1" stop-color="white" stop-opacity="0"/>
</linearGradient>
<linearGradient id="paint4_linear_12617_2158" x1="97.3771" y1="318.679" x2="121.905" y2="361.177" gradientUnits="userSpaceOnUse">
<stop stop-color="white"/>
<stop offset="1" stop-color="white" stop-opacity="0"/>
</linearGradient>
<linearGradient id="paint5_linear_12617_2158" x1="318.295" y1="253.211" x2="342.822" y2="295.708" gradientUnits="userSpaceOnUse">
<stop stop-color="white"/>
<stop offset="1" stop-color="white" stop-opacity="0"/>
</linearGradient>
<linearGradient id="paint6_linear_12617_2158" x1="117.606" y1="343.662" x2="90.9679" y2="559.732" gradientUnits="userSpaceOnUse">
<stop stop-color="white"/>
<stop offset="1" stop-color="white" stop-opacity="0"/>
</linearGradient>
<linearGradient id="paint7_linear_12617_2158" x1="278.882" y1="328.002" x2="385.281" y2="411.314" gradientUnits="userSpaceOnUse">
<stop stop-color="white"/>
<stop offset="1" stop-color="white" stop-opacity="0"/>
</linearGradient>
<linearGradient id="paint8_linear_12617_2158" x1="341.441" y1="461.729" x2="373.48" y2="487.015" gradientUnits="userSpaceOnUse">
<stop stop-color="white"/>
<stop offset="1" stop-color="white" stop-opacity="0"/>
</linearGradient>
<linearGradient id="paint9_linear_12617_2158" x1="76.2129" y1="232.516" x2="107.251" y2="249.819" gradientUnits="userSpaceOnUse">
<stop stop-color="white"/>
<stop offset="1" stop-color="white" stop-opacity="0"/>
</linearGradient>
</defs>
</svg>
