<svg width="271" height="125" viewBox="0 0 271 125" fill="none" xmlns="http://www.w3.org/2000/svg">
<path d="M0 29.8243H7.77881V66.8235H0V29.8243Z" fill="#F8F8F8"/>
<path d="M39.2821 53.5098C39.2821 53.6095 39.2322 54.3076 39.1325 55.6041H18.8378C19.2034 57.2662 20.0677 58.5793 21.4307 59.5433C22.7936 60.5074 24.489 60.9894 26.5168 60.9894C27.913 60.9894 29.143 60.7899 30.2068 60.391C31.3038 59.9589 32.3177 59.294 33.2485 58.3965L37.3872 62.8842C34.8608 65.7764 31.1708 67.2224 26.3174 67.2224C23.2923 67.2224 20.6162 66.6407 18.2892 65.4772C15.9623 64.2804 14.1671 62.6349 12.9039 60.5406C11.6407 58.4463 11.0091 56.0695 11.0091 53.41C11.0091 50.7839 11.6241 48.4236 12.8541 46.3293C14.1173 44.2018 15.8293 42.5563 17.9901 41.3928C20.1841 40.196 22.6274 39.5977 25.3201 39.5977C27.9463 39.5977 30.3231 40.1628 32.4507 41.293C34.5782 42.4233 36.2404 44.0522 37.4371 46.1797C38.6671 48.274 39.2821 50.7174 39.2821 53.5098ZM25.37 45.4816C23.6081 45.4816 22.1288 45.9803 20.9321 46.9776C19.7353 47.9748 19.004 49.3378 18.738 51.0664H31.952C31.6861 49.371 30.9548 48.0247 29.758 47.0274C28.5613 45.9969 27.0986 45.4816 25.37 45.4816Z" fill="#F8F8F8"/>
<path d="M59.7692 65.527C59.0047 66.0922 58.0572 66.5243 56.927 66.8235C55.83 67.0895 54.6665 67.2224 53.4365 67.2224C50.2452 67.2224 47.7686 66.408 46.0067 64.7791C44.2781 63.1502 43.4138 60.7567 43.4138 57.5986V46.5786H39.2751V40.5949H43.4138V34.0627H51.1926V40.5949H57.8744V46.5786H51.1926V57.4989C51.1926 58.6292 51.4752 59.5101 52.0403 60.1417C52.6387 60.7401 53.4697 61.0393 54.5335 61.0393C55.7635 61.0393 56.8106 60.7068 57.6749 60.042L59.7692 65.527Z" fill="#F8F8F8"/>
<path d="M96.4977 39.5977C99.8552 39.5977 102.515 40.5949 104.476 42.5895C106.471 44.5508 107.468 47.5094 107.468 51.4653V66.8235H99.689V52.6621C99.689 50.5345 99.2403 48.9555 98.3427 47.925C97.4784 46.8612 96.2318 46.3293 94.6029 46.3293C92.7745 46.3293 91.3285 46.9277 90.2647 48.1244C89.2009 49.2879 88.669 51.0332 88.669 53.3602V66.8235H80.8902V52.6621C80.8902 48.4402 79.1948 46.3293 75.8041 46.3293C74.009 46.3293 72.5795 46.9277 71.5158 48.1244C70.452 49.2879 69.9201 51.0332 69.9201 53.3602V66.8235H62.1413V39.9966H69.5711V43.0882C70.5683 41.9579 71.7817 41.0936 73.2112 40.4952C74.6738 39.8968 76.2695 39.5977 77.9981 39.5977C79.893 39.5977 81.6049 39.98 83.1341 40.7445C84.6633 41.4759 85.8933 42.5563 86.8241 43.9857C87.9211 42.5895 89.3007 41.5091 90.9628 40.7445C92.6582 39.98 94.5032 39.5977 96.4977 39.5977Z" fill="#F8F8F8"/>
<path d="M139.016 53.5098C139.016 53.6095 138.966 54.3076 138.867 55.6041H118.572C118.938 57.2662 119.802 58.5793 121.165 59.5433C122.528 60.5074 124.223 60.9894 126.251 60.9894C127.647 60.9894 128.877 60.7899 129.941 60.391C131.038 59.9589 132.052 59.294 132.983 58.3965L137.121 62.8842C134.595 65.7764 130.905 67.2224 126.052 67.2224C123.027 67.2224 120.35 66.6407 118.023 65.4772C115.696 64.2804 113.901 62.6349 112.638 60.5406C111.375 58.4463 110.743 56.0695 110.743 53.41C110.743 50.7839 111.358 48.4236 112.588 46.3293C113.851 44.2018 115.563 42.5563 117.724 41.3928C119.918 40.196 122.362 39.5977 125.054 39.5977C127.68 39.5977 130.057 40.1628 132.185 41.293C134.312 42.4233 135.975 44.0522 137.171 46.1797C138.401 48.274 139.016 50.7174 139.016 53.5098ZM125.104 45.4816C123.342 45.4816 121.863 45.9803 120.666 46.9776C119.47 47.9748 118.738 49.3378 118.472 51.0664H131.686C131.42 49.371 130.689 48.0247 129.492 47.0274C128.295 45.9969 126.833 45.4816 125.104 45.4816Z" fill="#F8F8F8"/>
<path d="M184.498 39.9966L179.162 66.8235H171.782L172.281 64.1807C170.054 66.2085 167.311 67.2224 164.053 67.2224C161.959 67.2224 160.031 66.7404 158.269 65.7764C156.507 64.8123 155.094 63.4327 154.031 61.6376C153 59.8093 152.485 57.6651 152.485 55.2052C152.485 52.2465 153.133 49.5871 154.429 47.2269C155.759 44.8334 157.554 42.9718 159.815 41.6421C162.075 40.2791 164.568 39.5977 167.294 39.5977C171.417 39.5977 174.325 40.944 176.021 43.6367L176.719 39.9966H184.498ZM166.447 60.7899C167.976 60.7899 169.339 60.4243 170.536 59.6929C171.732 58.9283 172.663 57.8812 173.328 56.5515C173.993 55.2218 174.325 53.6926 174.325 51.964C174.325 50.1356 173.777 48.6896 172.68 47.6258C171.616 46.562 170.12 46.0301 168.192 46.0301C166.663 46.0301 165.3 46.4124 164.103 47.177C162.906 47.9084 161.976 48.9389 161.311 50.2686C160.646 51.5983 160.313 53.1275 160.313 54.8561C160.313 56.6845 160.845 58.1305 161.909 59.1943C163.006 60.2581 164.519 60.7899 166.447 60.7899Z" fill="#F8F8F8"/>
<path d="M194.143 67.2224C191.816 67.2224 189.605 66.9731 187.511 66.4745C185.45 65.9426 183.838 65.2611 182.674 64.43L185.666 58.7954C186.829 59.56 188.242 60.175 189.904 60.6404C191.6 61.1058 193.295 61.3384 194.99 61.3384C196.752 61.3384 198.065 61.1224 198.93 60.6902C199.794 60.2248 200.226 59.5766 200.226 58.7455C200.226 58.0807 199.844 57.5986 199.079 57.2994C198.315 57.0003 197.085 56.6845 195.389 56.352C193.461 55.9864 191.866 55.5874 190.602 55.1553C189.372 54.7231 188.292 54.025 187.361 53.061C186.464 52.0637 186.015 50.7174 186.015 49.022C186.015 46.0634 187.245 43.753 189.705 42.0909C192.198 40.4287 195.456 39.5977 199.478 39.5977C201.34 39.5977 203.152 39.7971 204.913 40.196C206.675 40.5949 208.171 41.1435 209.401 41.8415L206.609 47.5261C204.415 46.1631 201.772 45.4816 198.68 45.4816C196.985 45.4816 195.689 45.731 194.791 46.2296C193.927 46.7282 193.495 47.3599 193.495 48.1244C193.495 48.8225 193.877 49.3378 194.641 49.6702C195.406 49.9694 196.686 50.3018 198.481 50.6675C200.376 51.0332 201.922 51.4321 203.118 51.8643C204.348 52.2632 205.412 52.9446 206.31 53.9087C207.207 54.8727 207.656 56.1858 207.656 57.848C207.656 60.8398 206.393 63.1502 203.866 64.7791C201.373 66.408 198.132 67.2224 194.143 67.2224Z" fill="#F8F8F8"/>
<path d="M228.861 51.6648L238.086 66.8235H229.06L222.678 56.4019L217.94 60.3412L216.644 66.8235H208.865L216.245 29.8243H224.024L219.885 50.5179L232.75 39.9966H242.873L228.861 51.6648Z" fill="#F8F8F8"/>
<path d="M141.016 24.4389V11.9728C141.016 6.46499 145.481 2 150.989 2H258.197C263.705 2 268.17 6.46499 268.17 11.9728V81.7827C268.17 87.2906 263.705 91.7556 258.197 91.7556H240.744L246.577 118.974C247.087 121.353 244.236 122.979 242.448 121.329L215.812 96.742H150.989C145.481 96.742 141.016 92.277 141.016 86.7691V81.7827" stroke="#F8F8F8" stroke-width="4"/>
</svg>
