<svg width="146" height="70" viewBox="0 0 146 70" fill="none" xmlns="http://www.w3.org/2000/svg">
<path d="M0 17.8396H4.1487V37.5725H0V17.8396Z" fill="#29292E"/>
<path d="M20.9504 30.4719C20.9504 30.5251 20.9238 30.8974 20.8707 31.5888H10.0468C10.2418 32.4753 10.7028 33.1756 11.4297 33.6898C12.1566 34.2039 13.0608 34.461 14.1423 34.461C14.887 34.461 15.5429 34.3546 16.1103 34.1419C16.6954 33.9114 17.2361 33.5568 17.7325 33.0781L19.9399 35.4716C18.5924 37.014 16.6244 37.7853 14.0359 37.7853C12.4226 37.7853 10.9953 37.475 9.75427 36.8545C8.5132 36.2162 7.55581 35.3386 6.88209 34.2216C6.20837 33.1047 5.87151 31.837 5.87151 30.4187C5.87151 29.018 6.1995 27.7593 6.8555 26.6423C7.52922 25.5076 8.44228 24.63 9.5947 24.0095C10.7648 23.3712 12.068 23.0521 13.5041 23.0521C14.9047 23.0521 16.1723 23.3535 17.307 23.9563C18.4417 24.5591 19.3282 25.4278 19.9665 26.5625C20.6224 27.6795 20.9504 28.9826 20.9504 30.4719ZM13.5306 26.1902C12.591 26.1902 11.802 26.4561 11.1638 26.988C10.5255 27.5199 10.1355 28.2468 9.99362 29.1687H17.0411C16.8993 28.2645 16.5092 27.5465 15.8709 27.0146C15.2327 26.465 14.4526 26.1902 13.5306 26.1902Z" fill="#29292E"/>
<path d="M31.8769 36.8811C31.4692 37.1825 30.9639 37.413 30.3611 37.5725C29.776 37.7144 29.1555 37.7853 28.4995 37.7853C26.7974 37.7853 25.4766 37.3509 24.5369 36.4822C23.615 35.6134 23.154 34.3369 23.154 32.6526V26.7753H20.9467V23.584H23.154V20.1001H27.3027V23.584H30.8664V26.7753H27.3027V32.5994C27.3027 33.2022 27.4534 33.672 27.7548 34.0089C28.074 34.328 28.5172 34.4876 29.0845 34.4876C29.7405 34.4876 30.299 34.3103 30.76 33.9557L31.8769 36.8811Z" fill="#29292E"/>
<path d="M51.4655 23.0521C53.2561 23.0521 54.6745 23.584 55.7205 24.6477C56.7843 25.6938 57.3162 27.2717 57.3162 29.3815V37.5725H53.1675V30.0198C53.1675 28.8851 52.9281 28.0429 52.4494 27.4933C51.9885 26.926 51.3236 26.6423 50.4549 26.6423C49.4798 26.6423 48.7085 26.9614 48.1412 27.5997C47.5738 28.2202 47.2902 29.151 47.2902 30.3921V37.5725H43.1415V30.0198C43.1415 27.7681 42.2373 26.6423 40.4288 26.6423C39.4715 26.6423 38.7091 26.9614 38.1417 27.5997C37.5744 28.2202 37.2907 29.151 37.2907 30.3921V37.5725H33.142V23.2648H37.1046V24.9137C37.6365 24.3109 38.2836 23.8499 39.0459 23.5308C39.826 23.2116 40.6771 23.0521 41.599 23.0521C42.6096 23.0521 43.5226 23.256 44.3382 23.6637C45.1538 24.0538 45.8097 24.63 46.3062 25.3924C46.8912 24.6477 47.627 24.0715 48.5135 23.6637C49.4177 23.256 50.4017 23.0521 51.4655 23.0521Z" fill="#29292E"/>
<path d="M74.142 30.4719C74.142 30.5251 74.1154 30.8974 74.0622 31.5888H63.2384C63.4334 32.4753 63.8944 33.1756 64.6213 33.6898C65.3482 34.2039 66.2524 34.461 67.3339 34.461C68.0785 34.461 68.7345 34.3546 69.3019 34.1419C69.887 33.9114 70.4277 33.5568 70.9241 33.0781L73.1315 35.4716C71.784 37.014 69.816 37.7853 67.2275 37.7853C65.6141 37.7853 64.1869 37.475 62.9459 36.8545C61.7048 36.2162 60.7474 35.3386 60.0737 34.2216C59.4 33.1047 59.0631 31.837 59.0631 30.4187C59.0631 29.018 59.3911 27.7593 60.0471 26.6423C60.7208 25.5076 61.6339 24.63 62.7863 24.0095C63.9564 23.3712 65.2596 23.0521 66.6956 23.0521C68.0963 23.0521 69.3639 23.3535 70.4986 23.9563C71.6333 24.5591 72.5198 25.4278 73.158 26.5625C73.814 27.6795 74.142 28.9826 74.142 30.4719ZM66.7222 26.1902C65.7826 26.1902 64.9936 26.4561 64.3553 26.988C63.7171 27.5199 63.327 28.2468 63.1852 29.1687H70.2327C70.0908 28.2645 69.7008 27.5465 69.0625 27.0146C68.4243 26.465 67.6442 26.1902 66.7222 26.1902Z" fill="#29292E"/>
<path d="M98.3987 23.2648L95.5531 37.5725H91.6172L91.8831 36.163C90.6952 37.2445 89.2325 37.7853 87.4951 37.7853C86.3781 37.7853 85.3498 37.5282 84.4101 37.014C83.4705 36.4999 82.717 35.7641 82.1496 34.8067C81.6 33.8316 81.3252 32.688 81.3252 31.3761C81.3252 29.7981 81.6709 28.3798 82.3624 27.121C83.0716 25.8445 84.0289 24.8516 85.2345 24.1424C86.4402 23.4155 87.7699 23.0521 89.2237 23.0521C91.4221 23.0521 92.9735 23.7701 93.8777 25.2062L94.25 23.2648H98.3987ZM88.7716 34.3546C89.5871 34.3546 90.314 34.1596 90.9523 33.7695C91.5906 33.3618 92.087 32.8033 92.4416 32.0941C92.7962 31.3849 92.9735 30.5694 92.9735 29.6474C92.9735 28.6723 92.6809 27.9011 92.0959 27.3337C91.5285 26.7664 90.7307 26.4827 89.7024 26.4827C88.8868 26.4827 88.1599 26.6866 87.5217 27.0944C86.8834 27.4844 86.387 28.0341 86.0324 28.7432C85.6778 29.4524 85.5005 30.268 85.5005 31.1899C85.5005 32.165 85.7842 32.9363 86.3515 33.5036C86.9366 34.0709 87.7433 34.3546 88.7716 34.3546Z" fill="url(#paint0_linear_12730_2257)"/>
<path d="M103.543 37.7853C102.302 37.7853 101.123 37.6523 100.006 37.3864C98.9065 37.1027 98.0467 36.7392 97.4261 36.296L99.0218 33.2909C99.6423 33.6986 100.396 34.0266 101.282 34.2748C102.187 34.5231 103.091 34.6472 103.995 34.6472C104.935 34.6472 105.635 34.5319 106.096 34.3014C106.557 34.0532 106.787 33.7075 106.787 33.2643C106.787 32.9097 106.583 32.6526 106.176 32.493C105.768 32.3335 105.112 32.165 104.208 31.9877C103.179 31.7927 102.328 31.58 101.655 31.3495C100.999 31.119 100.422 30.7467 99.926 30.2325C99.4473 29.7006 99.2079 28.9826 99.2079 28.0784C99.2079 26.5005 99.8639 25.2683 101.176 24.3818C102.506 23.4953 104.243 23.0521 106.388 23.0521C107.381 23.0521 108.348 23.1584 109.287 23.3712C110.227 23.584 111.025 23.8765 111.681 24.2488L110.191 27.2806C109.021 26.5536 107.612 26.1902 105.963 26.1902C105.059 26.1902 104.367 26.3232 103.889 26.5891C103.428 26.855 103.197 27.1919 103.197 27.5997C103.197 27.972 103.401 28.2468 103.809 28.4241C104.217 28.5837 104.899 28.761 105.857 28.956C106.867 29.151 107.692 29.3638 108.33 29.5943C108.986 29.807 109.553 30.1705 110.032 30.6846C110.511 31.1988 110.75 31.8991 110.75 32.7856C110.75 34.3812 110.076 35.6134 108.729 36.4822C107.399 37.3509 105.67 37.7853 103.543 37.7853Z" fill="url(#paint1_linear_12730_2257)"/>
<path d="M122.059 29.4879L126.979 37.5725H122.165L118.761 32.0143L116.235 34.1153L115.543 37.5725H111.395L115.331 17.8396H119.479L117.272 28.8762L124.133 23.2648H129.532L122.059 29.4879Z" fill="url(#paint2_linear_12730_2257)"/>
<path d="M75.2085 14.9674V8.31885C75.2085 5.38133 77.5898 3 80.5273 3H137.705C140.642 3 143.024 5.38133 143.024 8.31885V45.5508C143.024 48.4883 140.642 50.8696 137.705 50.8696H128.397L131.508 65.3863C131.78 66.6552 130.259 67.5222 129.306 66.642L115.1 53.529H80.5273C77.5898 53.529 75.2085 51.1477 75.2085 48.2102V45.5508" stroke="url(#paint3_linear_12730_2257)" stroke-width="4.30079"/>
<defs>
<linearGradient id="paint0_linear_12730_2257" x1="81.3252" y1="17.8396" x2="92.529" y2="49.4793" gradientUnits="userSpaceOnUse">
<stop stop-color="#485BFF"/>
<stop offset="1" stop-color="#FF59F8"/>
</linearGradient>
<linearGradient id="paint1_linear_12730_2257" x1="81.3252" y1="17.8396" x2="92.529" y2="49.4793" gradientUnits="userSpaceOnUse">
<stop stop-color="#485BFF"/>
<stop offset="1" stop-color="#FF59F8"/>
</linearGradient>
<linearGradient id="paint2_linear_12730_2257" x1="81.3252" y1="17.8396" x2="92.529" y2="49.4793" gradientUnits="userSpaceOnUse">
<stop stop-color="#485BFF"/>
<stop offset="1" stop-color="#FF59F8"/>
</linearGradient>
<linearGradient id="paint3_linear_12730_2257" x1="75.2085" y1="3" x2="131.056" y2="72.145" gradientUnits="userSpaceOnUse">
<stop stop-color="#485BFF"/>
<stop offset="1" stop-color="#FF59F8"/>
</linearGradient>
</defs>
</svg>
