<svg width="24" height="24" viewBox="0 0 24 24" fill="none" xmlns="http://www.w3.org/2000/svg">
<path d="M12.2437 10.2847V14.4H19.1882C18.9058 16.167 17.0884 19.575 12.2437 19.575C8.06326 19.575 4.65338 16.1812 4.65338 12C4.65338 7.81875 8.06326 4.425 12.2437 4.425C14.6205 4.425 16.2138 5.41875 17.1221 6.27675L20.4463 3.141C18.3128 1.182 15.5488 0 12.2437 0C5.47601 0 0 5.367 0 12C0 18.633 5.47601 24 12.2437 24C19.3076 24 24 19.1295 24 12.2767C24 11.4892 23.9135 10.8892 23.8087 10.2892L12.2437 10.2847Z" fill="#FEFEFE"/>
</svg>
