<svg width="19" height="20" viewBox="0 0 19 20" fill="none" xmlns="http://www.w3.org/2000/svg">
<path d="M5.83317 18.3333H3.33317C2.89114 18.3333 2.46722 18.1577 2.15466 17.8451C1.8421 17.5326 1.6665 17.1087 1.6665 16.6666V10.8333C1.6665 10.3913 1.8421 9.96734 2.15466 9.65478C2.46722 9.34222 2.89114 9.16662 3.33317 9.16662H5.83317M11.6665 7.49996V4.16663C11.6665 3.50358 11.4031 2.8677 10.9343 2.39886C10.4654 1.93002 9.82954 1.66663 9.1665 1.66663L5.83317 9.16662V18.3333H15.2332C15.6351 18.3378 16.0251 18.197 16.3314 17.9366C16.6377 17.6763 16.8396 17.314 16.8998 16.9166L18.0498 9.41662C18.0861 9.17776 18.07 8.93386 18.0026 8.70183C17.9353 8.46981 17.8182 8.2552 17.6597 8.07289C17.5012 7.89057 17.3049 7.7449 17.0845 7.64597C16.8641 7.54704 16.6248 7.49722 16.3832 7.49996H11.6665Z" stroke="#A8A8B3" stroke-width="1.5" stroke-linecap="round" stroke-linejoin="round"/>
</svg>
